Coordinates
version=1
nRows=6
nColumns=63
inDegrees=yes

Units are S.I. units (second, meters, Newtons, ...)
If the header above contains a line with 'inDegrees', this indicates whether rotational values are in degrees (yes) or radians (no).

endheader
time	pelvis_tilt	pelvis_list	pelvis_rotation	pelvis_tx	pelvis_ty	pelvis_tz	hip_flexion_r	hip_adduction_r	hip_rotation_r	knee_angle_r	knee_angle_r_beta	ankle_angle_r	subtalar_angle_r	mtp_angle_r	hip_flexion_l	hip_adduction_l	hip_rotation_l	knee_angle_l	knee_angle_l_beta	ankle_angle_l	subtalar_angle_l	mtp_angle_l	L5_S1_Flex_Ext	L5_S1_Lat_Bending	L5_S1_axial_rotation	L4_L5_Flex_Ext	L4_L5_Lat_Bending	L4_L5_axial_rotation	L3_L4_Flex_Ext	L3_L4_Lat_Bending	L3_L4_axial_rotation	L2_L3_Flex_Ext	L2_L3_Lat_Bending	L2_L3_axial_rotation	L1_L2_Flex_Ext	L1_L2_Lat_Bending	L1_L2_axial_rotation	L1_T12_Flex_Ext	L1_T12_Lat_Bending	L1_T12_axial_rotation	Abs_r3	Abs_r2	Abs_r1	Abs_t1	Abs_t2	neck_flexion	neck_bending	neck_rotation	arm_flex_r	arm_add_r	arm_rot_r	elbow_flex_r	pro_sup_r	wrist_flex_r	wrist_dev_r	arm_flex_l	arm_add_l	arm_rot_l	elbow_flex_l	pro_sup_l	wrist_flex_l	wrist_dev_l
      3.15000000	     -2.39305396	      3.53613755	     89.90965523	      0.22181461	      0.67984358	      0.69481690	      4.18829337	     -2.95159175	     -9.30183996	     22.76132606	      0.39726008	     15.70660777	     -1.49323000	      0.00000000	      3.15322552	      2.50539802	     -4.64920383	     16.64494350	      0.29050907	     17.75444982	     -9.00187073	      0.00000000	     -0.27726653	     -0.54578342	      0.49060785	     -0.51491167	     -0.72589195	      0.52127085	     -0.45552118	     -1.32701780	      0.52127085	     -0.31688792	     -1.32701780	      0.42928187	     -0.25746970	     -1.11296155	      0.39861888	     -0.15843010	     -0.84541851	      0.36795589	     -1.98048710	     -6.17401118	      2.72861370	      0.00000000	      0.00000000	      6.84087528	     -0.13324673	     -2.42218549	      3.57616531	    -15.17803570	     19.06803262	     47.38687144	     87.99231767	     -5.31277093	     12.51151076	     10.72462677	    -19.59957619	     66.89972818	     20.91118231	     82.74543763	    -29.77216747	     -9.32893965
      3.16666667	     -2.38392721	      3.70039076	     90.15072628	      0.22161758	      0.68014153	      0.69450961	      4.01577646	     -2.91785033	     -9.26444499	     22.78186469	      0.39761855	     15.83246032	     -1.49773771	      0.00000000	      3.02555526	      2.48535620	     -4.55293706	     16.74519804	      0.29225884	     17.76988608	     -8.95586741	      0.00000000	     -0.25895934	     -0.55746840	      0.53305299	     -0.48091339	     -0.74143297	      0.56636880	     -0.42544430	     -1.35542866	      0.56636880	     -0.29596463	     -1.35542866	      0.46642137	     -0.24046964	     -1.13678955	      0.43310556	     -0.14796937	     -0.86351855	      0.39978974	     -1.84972068	     -6.30619399	      2.96468082	      0.00000000	      0.00000000	      6.91829783	     -0.08129329	     -2.44911787	      3.38551989	    -15.13604265	     19.18907738	     47.21815801	     88.02731168	     -5.31788654	     12.52546888	     10.23982715	    -19.42865162	     67.01994019	     20.89927851	     82.74021811	    -29.78999791	     -9.37516769
      3.18333333	     -2.46804474	      3.81295436	     90.39287962	      0.22147959	      0.68033550	      0.69368273	      3.65014927	     -2.90263366	     -9.02379392	     22.35337314	      0.39013996	     16.52988491	     -1.39643772	      0.00000000	      2.92343495	      2.56763764	     -4.17743049	     16.88390949	      0.29467981	     18.04105838	     -8.79589835	      0.00000000	     -0.23385351	     -0.58715295	      0.58691834	     -0.43428936	     -0.78091342	      0.62360073	     -0.38419794	     -1.42760367	      0.62360073	     -0.26727118	     -1.42760367	      0.51355354	     -0.21715637	     -1.19732229	      0.47687115	     -0.13362390	     -0.90949991	      0.44018875	     -1.67039226	     -6.64199155	      3.26426371	      0.00000000	      0.00000000	      6.60802309	      0.44991666	     -2.80491451	      3.12011862	    -15.07974686	     19.50373230	     47.05965836	     88.11933223	     -5.46398873	     12.37824396	      9.76264219	    -19.25821615	     67.27052850	     20.65925968	     82.66110562	    -29.98956277	     -9.72016983
      3.20000000	     -2.47862623	      3.90044146	     90.77389565	      0.22103316	      0.68093081	      0.69294084	      3.25404677	     -2.95163857	     -9.68196611	     21.82873294	      0.38098326	     16.92946672	     -0.29956043	      0.00000000	      2.78410852	      2.57206485	     -4.05239572	     16.83256302	      0.29378365	     17.87775554	     -8.53005011	      0.00000000	     -0.21482522	     -0.61114126	      0.69832573	     -0.39895191	     -0.81281788	      0.74197109	     -0.35293635	     -1.48592886	      0.74197109	     -0.24552374	     -1.48592886	      0.61103501	     -0.19948669	     -1.24623926	      0.56738965	     -0.12275113	     -0.94665781	      0.52374430	     -1.53447503	     -6.91335216	      3.88387820	      0.00000000	      0.00000000	      6.35352076	      1.16782306	     -3.74298074	      2.60392087	    -15.03482545	     19.61538127	     46.79650847	     87.99820628	     -6.75771616	     11.53872565	     11.52046843	    -18.72668724	     81.60117840	     18.70258553	     69.39904550	    -31.86151286	    -13.10278954
      3.21666667	     -2.43601552	      3.91492389	     90.97916062	      0.22073834	      0.68099490	      0.69230510	      3.14224437	     -2.84082634	     -9.51369730	     21.62885852	      0.37749479	     17.52167873	     -0.21430050	      0.00000000	      2.76244143	      2.52553995	     -3.89767555	     16.86659609	      0.29437764	     17.82228485	     -8.40536520	      0.00000000	     -0.19622215	     -0.61756836	      0.74501422	     -0.36440415	     -0.82136591	      0.79157761	     -0.32237337	     -1.50155570	      0.79157761	     -0.22426229	     -1.50155570	      0.65188744	     -0.18221189	     -1.25934539	      0.60532405	     -0.11212133	     -0.95661339	      0.55876066	     -1.40159518	     -6.98605677	      4.14354558	      0.00000000	      0.00000000	      6.63831207	      1.32072261	     -3.74621901	      2.38249083	    -14.96027916	     19.62592835	     46.62957806	     87.92872285	     -6.80648734	     11.56959309	     11.21509331	    -18.62122379	     81.77419437	     18.67380071	     69.46200090	    -31.70158704	    -13.06789765
      3.23333333	     -2.36378141	      3.84972775	     91.14233043	      0.22037018	      0.68101700	      0.69134554	      2.96409578	     -2.86000374	    -10.22053900	     21.21249600	      0.37022790	     18.15331934	      1.38083419	      0.00000000	      2.79468308	      2.38606014	     -4.27374565	     16.89247504	      0.29482931	     18.00635370	     -7.57510944	      0.00000000	     -0.16784828	     -0.62113156	      0.91116157	     -0.31171104	     -0.82610498	      0.96810917	     -0.27575794	     -1.51021928	      0.96810917	     -0.19183380	     -1.51021928	      0.79726638	     -0.15586391	     -1.26661148	      0.74031878	     -0.09590851	     -0.96213279	      0.68337118	     -1.19892349	     -7.02636444	      5.06760732	      0.00000000	      0.00000000	      7.28633664	      1.92384907	     -4.07131082	      1.34368753	    -14.74342319	     17.99405792	     47.00632917	     87.74193163	     -6.94545684	     11.65583515	     11.85114521	    -18.25947304	     85.33274398	     18.25403706	     68.71085967	    -30.60393538	    -12.25249004
